<?xml version="1.0" encoding="UTF-8" standalone="no"?>
<!DOCTYPE svg PUBLIC "-//W3C//DTD SVG 1.1//EN"
 "http://www.w3.org/Graphics/SVG/1.1/DTD/svg11.dtd">
<!-- Generated by graphviz version 2.26.3 (20100126.1600)
 -->
<!-- Title: G Pages: 1 -->
<svg width="1424pt" height="336pt"
 viewBox="0.00 0.00 1424.00 336.00" xmlns="http://www.w3.org/2000/svg" xmlns:xlink="http://www.w3.org/1999/xlink">
<g id="graph1" class="graph" transform="scale(1 1) rotate(0) translate(4 332)">
<title>G</title>
<polygon fill="white" stroke="white" points="-4,5 -4,-332 1421,-332 1421,5 -4,5"/>
<!-- 1 -->
<g id="node1" class="node"><title>1</title>
<polygon fill="none" stroke="black" points="0,-175 0,-327 336,-327 336,-175 0,-175"/>
<text text-anchor="middle" x="168" y="-310.4" font-family="Times Roman,serif" font-size="14.00">com.example.visitors.ReflexionModelAnalyzer</text>
<polyline fill="none" stroke="black" points="0,-303 336,-303 "/>
<text text-anchor="middle" x="168" y="-286.4" font-family="Times Roman,serif" font-size="14.00">Attrs</text>
<polyline fill="none" stroke="black" points="0,-279 336,-279 "/>
<text text-anchor="start" x="8" y="-262.4" font-family="Times Roman,serif" font-size="14.00">mapping</text>
<polyline fill="none" stroke="black" points="0,-255 336,-255 "/>
<text text-anchor="middle" x="168" y="-238.4" font-family="Times Roman,serif" font-size="14.00">Methods</text>
<polyline fill="none" stroke="black" points="0,-231 336,-231 "/>
<text text-anchor="start" x="8" y="-214.4" font-family="Times Roman,serif" font-size="14.00">visitClass</text>
<text text-anchor="start" x="8" y="-198.4" font-family="Times Roman,serif" font-size="14.00">visitAssignment</text>
<text text-anchor="start" x="8" y="-182.4" font-family="Times Roman,serif" font-size="14.00">visitVariable</text>
</g>
<!-- 2 -->
<g id="node2" class="node"><title>2</title>
<polygon fill="none" stroke="black" points="196,-17 196,-121 446,-121 446,-17 196,-17"/>
<text text-anchor="middle" x="321" y="-104.4" font-family="Times Roman,serif" font-size="14.00">com.example.visitors.NodeVisitor</text>
<polyline fill="none" stroke="black" points="196,-97 446,-97 "/>
<text text-anchor="middle" x="321" y="-80.4" font-family="Times Roman,serif" font-size="14.00">Methods</text>
<polyline fill="none" stroke="black" points="196,-73 446,-73 "/>
<text text-anchor="start" x="204" y="-56.4" font-family="Times Roman,serif" font-size="14.00">visitClass</text>
<text text-anchor="start" x="204" y="-40.4" font-family="Times Roman,serif" font-size="14.00">visitAssignment</text>
<text text-anchor="start" x="204" y="-24.4" font-family="Times Roman,serif" font-size="14.00">visitVariable</text>
</g>
<!-- 1&#45;&gt;2 -->
<g id="edge2" class="edge"><title>1&#45;&gt;2</title>
<path fill="none" stroke="black" d="M231.999,-174.87C244.85,-159.583 258.185,-143.721 270.5,-129.072"/>
<polygon fill="black" stroke="black" points="273.471,-130.977 277.227,-121.07 268.113,-126.473 273.471,-130.977"/>
</g>
<!-- 3 -->
<g id="node3" class="node"><title>3</title>
<polygon fill="none" stroke="black" points="353.5,-175 353.5,-327 594.5,-327 594.5,-175 353.5,-175"/>
<text text-anchor="middle" x="474" y="-310.4" font-family="Times Roman,serif" font-size="14.00">com.example.visitors.Verificator</text>
<polyline fill="none" stroke="black" points="353.5,-303 594.5,-303 "/>
<text text-anchor="middle" x="474" y="-286.4" font-family="Times Roman,serif" font-size="14.00">Attrs</text>
<polyline fill="none" stroke="black" points="353.5,-279 594.5,-279 "/>
<text text-anchor="start" x="361.5" y="-262.4" font-family="Times Roman,serif" font-size="14.00">specification</text>
<polyline fill="none" stroke="black" points="353.5,-255 594.5,-255 "/>
<text text-anchor="middle" x="474" y="-238.4" font-family="Times Roman,serif" font-size="14.00">Methods</text>
<polyline fill="none" stroke="black" points="353.5,-231 594.5,-231 "/>
<text text-anchor="start" x="361.5" y="-214.4" font-family="Times Roman,serif" font-size="14.00">visitClass</text>
<text text-anchor="start" x="361.5" y="-198.4" font-family="Times Roman,serif" font-size="14.00">visitAssignment</text>
<text text-anchor="start" x="361.5" y="-182.4" font-family="Times Roman,serif" font-size="14.00">visitVariable</text>
</g>
<!-- 3&#45;&gt;2 -->
<g id="edge4" class="edge"><title>3&#45;&gt;2</title>
<path fill="none" stroke="black" d="M410.001,-174.87C397.15,-159.583 383.815,-143.721 371.5,-129.072"/>
<polygon fill="black" stroke="black" points="373.887,-126.473 364.773,-121.07 368.529,-130.977 373.887,-126.473"/>
</g>
<!-- 4 -->
<g id="node4" class="node"><title>4</title>
<polygon fill="none" stroke="black" points="928,-1 928,-137 1126,-137 1126,-1 928,-1"/>
<text text-anchor="middle" x="1027" y="-120.4" font-family="Times Roman,serif" font-size="14.00">com.example.nodes.Node</text>
<polyline fill="none" stroke="black" points="928,-113 1126,-113 "/>
<text text-anchor="middle" x="1027" y="-96.4" font-family="Times Roman,serif" font-size="14.00">Attrs</text>
<polyline fill="none" stroke="black" points="928,-89 1126,-89 "/>
<text text-anchor="start" x="936" y="-72.4" font-family="Times Roman,serif" font-size="14.00">lineno</text>
<text text-anchor="start" x="936" y="-56.4" font-family="Times Roman,serif" font-size="14.00">strPos</text>
<polyline fill="none" stroke="black" points="928,-49 1126,-49 "/>
<text text-anchor="middle" x="1027" y="-32.4" font-family="Times Roman,serif" font-size="14.00">Methods</text>
<polyline fill="none" stroke="black" points="928,-25 1126,-25 "/>
<text text-anchor="start" x="936" y="-8.4" font-family="Times Roman,serif" font-size="14.00">accept</text>
</g>
<!-- 5 -->
<g id="node5" class="node"><title>5</title>
<polygon fill="none" stroke="black" points="612,-191 612,-311 892,-311 892,-191 612,-191"/>
<text text-anchor="middle" x="752" y="-294.4" font-family="Times Roman,serif" font-size="14.00">com.example.nodes.AssignmentNode</text>
<polyline fill="none" stroke="black" points="612,-287 892,-287 "/>
<text text-anchor="middle" x="752" y="-270.4" font-family="Times Roman,serif" font-size="14.00">Attrs</text>
<polyline fill="none" stroke="black" points="612,-263 892,-263 "/>
<text text-anchor="start" x="620" y="-246.4" font-family="Times Roman,serif" font-size="14.00">name</text>
<polyline fill="none" stroke="black" points="612,-239 892,-239 "/>
<text text-anchor="middle" x="752" y="-222.4" font-family="Times Roman,serif" font-size="14.00">Methods</text>
<polyline fill="none" stroke="black" points="612,-215 892,-215 "/>
<text text-anchor="start" x="620" y="-198.4" font-family="Times Roman,serif" font-size="14.00">accept</text>
</g>
<!-- 5&#45;&gt;4 -->
<g id="edge6" class="edge"><title>5&#45;&gt;4</title>
<path fill="none" stroke="black" d="M842.807,-190.902C867.265,-174.716 893.958,-157.049 919.243,-140.316"/>
<polygon fill="black" stroke="black" points="921.351,-143.118 927.758,-134.68 917.487,-137.28 921.351,-143.118"/>
</g>
<!-- 6 -->
<g id="node6" class="node"><title>6</title>
<polygon fill="none" stroke="black" points="909.5,-191 909.5,-311 1144.5,-311 1144.5,-191 909.5,-191"/>
<text text-anchor="middle" x="1027" y="-294.4" font-family="Times Roman,serif" font-size="14.00">com.example.nodes.ClassNode</text>
<polyline fill="none" stroke="black" points="909.5,-287 1144.5,-287 "/>
<text text-anchor="middle" x="1027" y="-270.4" font-family="Times Roman,serif" font-size="14.00">Attrs</text>
<polyline fill="none" stroke="black" points="909.5,-263 1144.5,-263 "/>
<text text-anchor="start" x="917.5" y="-246.4" font-family="Times Roman,serif" font-size="14.00">name</text>
<polyline fill="none" stroke="black" points="909.5,-239 1144.5,-239 "/>
<text text-anchor="middle" x="1027" y="-222.4" font-family="Times Roman,serif" font-size="14.00">Methods</text>
<polyline fill="none" stroke="black" points="909.5,-215 1144.5,-215 "/>
<text text-anchor="start" x="917.5" y="-198.4" font-family="Times Roman,serif" font-size="14.00">accept</text>
</g>
<!-- 6&#45;&gt;4 -->
<g id="edge8" class="edge"><title>6&#45;&gt;4</title>
<path fill="none" stroke="black" d="M1027,-190.902C1027,-176.937 1027,-161.87 1027,-147.251"/>
<polygon fill="black" stroke="black" points="1030.5,-147.221 1027,-137.221 1023.5,-147.221 1030.5,-147.221"/>
</g>
<!-- 7 -->
<g id="node7" class="node"><title>7</title>
<polygon fill="none" stroke="black" points="1161.5,-191 1161.5,-311 1416.5,-311 1416.5,-191 1161.5,-191"/>
<text text-anchor="middle" x="1289" y="-294.4" font-family="Times Roman,serif" font-size="14.00">com.example.nodes.VariableNode</text>
<polyline fill="none" stroke="black" points="1161.5,-287 1416.5,-287 "/>
<text text-anchor="middle" x="1289" y="-270.4" font-family="Times Roman,serif" font-size="14.00">Attrs</text>
<polyline fill="none" stroke="black" points="1161.5,-263 1416.5,-263 "/>
<text text-anchor="start" x="1169.5" y="-246.4" font-family="Times Roman,serif" font-size="14.00">name</text>
<polyline fill="none" stroke="black" points="1161.5,-239 1416.5,-239 "/>
<text text-anchor="middle" x="1289" y="-222.4" font-family="Times Roman,serif" font-size="14.00">Methods</text>
<polyline fill="none" stroke="black" points="1161.5,-215 1416.5,-215 "/>
<text text-anchor="start" x="1169.5" y="-198.4" font-family="Times Roman,serif" font-size="14.00">accept</text>
</g>
<!-- 7&#45;&gt;4 -->
<g id="edge10" class="edge"><title>7&#45;&gt;4</title>
<path fill="none" stroke="black" d="M1202.49,-190.902C1180.45,-175.594 1156.51,-158.963 1133.6,-143.048"/>
<polygon fill="black" stroke="black" points="1135.42,-140.052 1125.21,-137.221 1131.42,-145.801 1135.42,-140.052"/>
</g>
</g>
</svg>
