<?xml version="1.0" encoding="UTF-8" standalone="no"?>
<!DOCTYPE svg PUBLIC "-//W3C//DTD SVG 1.1//EN"
 "http://www.w3.org/Graphics/SVG/1.1/DTD/svg11.dtd">
<!-- Generated by graphviz version 2.26.3 (20100126.1600)
 -->
<!-- Title: G Pages: 1 -->
<svg width="732pt" height="336pt"
 viewBox="0.00 0.00 732.00 336.00" xmlns="http://www.w3.org/2000/svg" xmlns:xlink="http://www.w3.org/1999/xlink">
<g id="graph1" class="graph" transform="scale(1 1) rotate(0) translate(4 332)">
<title>G</title>
<polygon fill="white" stroke="white" points="-4,5 -4,-332 729,-332 729,5 -4,5"/>
<!-- 4 -->
<g id="node1" class="node"><title>4</title>
<polygon fill="none" stroke="black" points="135,-1 135,-137 211,-137 211,-1 135,-1"/>
<text text-anchor="middle" x="173" y="-120.4" font-family="Times Roman,serif" font-size="14.00">Node</text>
<polyline fill="none" stroke="black" points="135,-113 211,-113 "/>
<text text-anchor="middle" x="173" y="-96.4" font-family="Times Roman,serif" font-size="14.00">Attrs</text>
<polyline fill="none" stroke="black" points="135,-89 211,-89 "/>
<text text-anchor="start" x="143" y="-72.4" font-family="Times Roman,serif" font-size="14.00">strPos</text>
<text text-anchor="start" x="143" y="-56.4" font-family="Times Roman,serif" font-size="14.00">lineno</text>
<polyline fill="none" stroke="black" points="135,-49 211,-49 "/>
<text text-anchor="middle" x="173" y="-32.4" font-family="Times Roman,serif" font-size="14.00">Methods</text>
<polyline fill="none" stroke="black" points="135,-25 211,-25 "/>
<text text-anchor="start" x="143" y="-8.4" font-family="Times Roman,serif" font-size="14.00">accept</text>
</g>
<!-- 5 -->
<g id="node2" class="node"><title>5</title>
<polygon fill="none" stroke="black" points="-0.5,-191 -0.5,-311 110.5,-311 110.5,-191 -0.5,-191"/>
<text text-anchor="middle" x="55" y="-294.4" font-family="Times Roman,serif" font-size="14.00">VariableNode</text>
<polyline fill="none" stroke="black" points="-0.5,-287 110.5,-287 "/>
<text text-anchor="middle" x="55" y="-270.4" font-family="Times Roman,serif" font-size="14.00">Attrs</text>
<polyline fill="none" stroke="black" points="-0.5,-263 110.5,-263 "/>
<text text-anchor="start" x="7.5" y="-246.4" font-family="Times Roman,serif" font-size="14.00">name</text>
<polyline fill="none" stroke="black" points="-0.5,-239 110.5,-239 "/>
<text text-anchor="middle" x="55" y="-222.4" font-family="Times Roman,serif" font-size="14.00">Methods</text>
<polyline fill="none" stroke="black" points="-0.5,-215 110.5,-215 "/>
<text text-anchor="start" x="7.5" y="-198.4" font-family="Times Roman,serif" font-size="14.00">accept</text>
</g>
<!-- 5&#45;&gt;4 -->
<g id="edge2" class="edge"><title>5&#45;&gt;4</title>
<path fill="none" stroke="black" d="M93.9646,-190.902C105.272,-173.462 117.693,-154.304 129.272,-136.445"/>
<polygon fill="black" stroke="black" points="132.376,-138.091 134.88,-127.796 126.503,-134.282 132.376,-138.091"/>
</g>
<!-- 6 -->
<g id="node3" class="node"><title>6</title>
<polygon fill="none" stroke="black" points="128,-191 128,-311 218,-311 218,-191 128,-191"/>
<text text-anchor="middle" x="173" y="-294.4" font-family="Times Roman,serif" font-size="14.00">ClassNode</text>
<polyline fill="none" stroke="black" points="128,-287 218,-287 "/>
<text text-anchor="middle" x="173" y="-270.4" font-family="Times Roman,serif" font-size="14.00">Attrs</text>
<polyline fill="none" stroke="black" points="128,-263 218,-263 "/>
<text text-anchor="start" x="136" y="-246.4" font-family="Times Roman,serif" font-size="14.00">name</text>
<polyline fill="none" stroke="black" points="128,-239 218,-239 "/>
<text text-anchor="middle" x="173" y="-222.4" font-family="Times Roman,serif" font-size="14.00">Methods</text>
<polyline fill="none" stroke="black" points="128,-215 218,-215 "/>
<text text-anchor="start" x="136" y="-198.4" font-family="Times Roman,serif" font-size="14.00">accept</text>
</g>
<!-- 6&#45;&gt;4 -->
<g id="edge4" class="edge"><title>6&#45;&gt;4</title>
<path fill="none" stroke="black" d="M173,-190.902C173,-176.937 173,-161.87 173,-147.251"/>
<polygon fill="black" stroke="black" points="176.5,-147.221 173,-137.221 169.5,-147.221 176.5,-147.221"/>
</g>
<!-- 7 -->
<g id="node4" class="node"><title>7</title>
<polygon fill="none" stroke="black" points="236,-191 236,-311 372,-311 372,-191 236,-191"/>
<text text-anchor="middle" x="304" y="-294.4" font-family="Times Roman,serif" font-size="14.00">AssignmentNode</text>
<polyline fill="none" stroke="black" points="236,-287 372,-287 "/>
<text text-anchor="middle" x="304" y="-270.4" font-family="Times Roman,serif" font-size="14.00">Attrs</text>
<polyline fill="none" stroke="black" points="236,-263 372,-263 "/>
<text text-anchor="start" x="244" y="-246.4" font-family="Times Roman,serif" font-size="14.00">name</text>
<polyline fill="none" stroke="black" points="236,-239 372,-239 "/>
<text text-anchor="middle" x="304" y="-222.4" font-family="Times Roman,serif" font-size="14.00">Methods</text>
<polyline fill="none" stroke="black" points="236,-215 372,-215 "/>
<text text-anchor="start" x="244" y="-198.4" font-family="Times Roman,serif" font-size="14.00">accept</text>
</g>
<!-- 7&#45;&gt;4 -->
<g id="edge6" class="edge"><title>7&#45;&gt;4</title>
<path fill="none" stroke="black" d="M260.743,-190.902C246.722,-171.423 231.159,-149.802 217.08,-130.241"/>
<polygon fill="black" stroke="black" points="219.828,-128.068 211.146,-121.996 214.147,-132.157 219.828,-128.068"/>
</g>
<!-- 10 -->
<g id="node5" class="node"><title>10</title>
<polygon fill="none" stroke="black" points="478,-17 478,-121 612,-121 612,-17 478,-17"/>
<text text-anchor="middle" x="545" y="-104.4" font-family="Times Roman,serif" font-size="14.00">NodeVisitor</text>
<polyline fill="none" stroke="black" points="478,-97 612,-97 "/>
<text text-anchor="middle" x="545" y="-80.4" font-family="Times Roman,serif" font-size="14.00">Methods</text>
<polyline fill="none" stroke="black" points="478,-73 612,-73 "/>
<text text-anchor="start" x="486" y="-56.4" font-family="Times Roman,serif" font-size="14.00">visit_variable</text>
<text text-anchor="start" x="486" y="-40.4" font-family="Times Roman,serif" font-size="14.00">visit_assignment</text>
<text text-anchor="start" x="486" y="-24.4" font-family="Times Roman,serif" font-size="14.00">visit_class</text>
</g>
<!-- 11 -->
<g id="node6" class="node"><title>11</title>
<polygon fill="none" stroke="black" points="390,-175 390,-327 524,-327 524,-175 390,-175"/>
<text text-anchor="middle" x="457" y="-310.4" font-family="Times Roman,serif" font-size="14.00">Verificator</text>
<polyline fill="none" stroke="black" points="390,-303 524,-303 "/>
<text text-anchor="middle" x="457" y="-286.4" font-family="Times Roman,serif" font-size="14.00">Attrs</text>
<polyline fill="none" stroke="black" points="390,-279 524,-279 "/>
<text text-anchor="start" x="398" y="-262.4" font-family="Times Roman,serif" font-size="14.00">specification</text>
<polyline fill="none" stroke="black" points="390,-255 524,-255 "/>
<text text-anchor="middle" x="457" y="-238.4" font-family="Times Roman,serif" font-size="14.00">Methods</text>
<polyline fill="none" stroke="black" points="390,-231 524,-231 "/>
<text text-anchor="start" x="398" y="-214.4" font-family="Times Roman,serif" font-size="14.00">visit_assignment</text>
<text text-anchor="start" x="398" y="-198.4" font-family="Times Roman,serif" font-size="14.00">visit_variable</text>
<text text-anchor="start" x="398" y="-182.4" font-family="Times Roman,serif" font-size="14.00">visit_class</text>
</g>
<!-- 11&#45;&gt;10 -->
<g id="edge8" class="edge"><title>11&#45;&gt;10</title>
<path fill="none" stroke="black" d="M493.81,-174.87C500.996,-160.008 508.445,-144.602 515.363,-130.296"/>
<polygon fill="black" stroke="black" points="518.621,-131.597 519.823,-121.07 512.319,-128.549 518.621,-131.597"/>
</g>
<!-- 12 -->
<g id="node7" class="node"><title>12</title>
<polygon fill="none" stroke="black" points="541.5,-175 541.5,-327 724.5,-327 724.5,-175 541.5,-175"/>
<text text-anchor="middle" x="633" y="-310.4" font-family="Times Roman,serif" font-size="14.00">ReflexionModelAnalyzer</text>
<polyline fill="none" stroke="black" points="541.5,-303 724.5,-303 "/>
<text text-anchor="middle" x="633" y="-286.4" font-family="Times Roman,serif" font-size="14.00">Attrs</text>
<polyline fill="none" stroke="black" points="541.5,-279 724.5,-279 "/>
<text text-anchor="start" x="549.5" y="-262.4" font-family="Times Roman,serif" font-size="14.00">mapping</text>
<polyline fill="none" stroke="black" points="541.5,-255 724.5,-255 "/>
<text text-anchor="middle" x="633" y="-238.4" font-family="Times Roman,serif" font-size="14.00">Methods</text>
<polyline fill="none" stroke="black" points="541.5,-231 724.5,-231 "/>
<text text-anchor="start" x="549.5" y="-214.4" font-family="Times Roman,serif" font-size="14.00">visit_variable</text>
<text text-anchor="start" x="549.5" y="-198.4" font-family="Times Roman,serif" font-size="14.00">visit_assignment</text>
<text text-anchor="start" x="549.5" y="-182.4" font-family="Times Roman,serif" font-size="14.00">visit_class</text>
</g>
<!-- 12&#45;&gt;10 -->
<g id="edge10" class="edge"><title>12&#45;&gt;10</title>
<path fill="none" stroke="black" d="M596.19,-174.87C589.004,-160.008 581.555,-144.602 574.637,-130.296"/>
<polygon fill="black" stroke="black" points="577.681,-128.549 570.177,-121.07 571.379,-131.597 577.681,-128.549"/>
</g>
</g>
</svg>
